<svg xmlns="http://www.w3.org/2000/svg" viewBox="0 0 512 512">
  <defs>
    <radialGradient id="space" cx="36%" cy="24%" r="88%">
      <stop offset="0" stop-color="#583fd1"/>
      <stop offset="0.52" stop-color="#17184c"/>
      <stop offset="1" stop-color="#08091f"/>
    </radialGradient>
    <linearGradient id="sprite" x1="0" y1="0" x2="1" y2="1">
      <stop stop-color="#8be9ff"/>
      <stop offset="1" stop-color="#8064ff"/>
    </linearGradient>
    <linearGradient id="crown" x1="0" y1="0" x2="0" y2="1">
      <stop stop-color="#fff3a1"/>
      <stop offset="1" stop-color="#f5aa31"/>
    </linearGradient>
  </defs>
  <rect width="512" height="512" rx="104" fill="url(#space)"/>
  <g fill="#fff" opacity=".86">
    <circle cx="92" cy="128" r="6"/><circle cx="410" cy="104" r="4"/><circle cx="436" cy="296" r="6"/>
    <circle cx="118" cy="390" r="4"/><circle cx="368" cy="410" r="5"/>
  </g>
  <path d="M147 235c-45 91-9 197 109 205 118-8 154-114 109-205-53 47-165 47-218 0Z" fill="url(#sprite)" stroke="#b6eeff" stroke-width="8"/>
  <ellipse cx="256" cy="229" rx="109" ry="92" fill="url(#sprite)" stroke="#b6eeff" stroke-width="8"/>
  <circle cx="220" cy="236" r="11" fill="#181842"/><circle cx="292" cy="236" r="11" fill="#181842"/>
  <path d="M230 275q26 22 52 0" fill="none" stroke="#181842" stroke-width="9" stroke-linecap="round"/>
  <path d="M156 156h200l-18-78-49 38-33-61-33 61-49-38-18 78Z" fill="url(#crown)" stroke="#9d6500" stroke-width="9" stroke-linejoin="round"/>
</svg>
